# xmcd
#
# Track frame offsets: 
#        153
#        15751
#        31904
#        48817
#        65825
#        80297
#        97447
#        108461
#        121345
#        135161
#        148050
#        164106
#        177469
#        192620
#        205804
#        219585
#        232707
#        246213
#        261430
#        276441
#        291282
#        304328
#
# Disc length: 4280 seconds
#
# Revision: 0
# Processed by: cddbd v1.5.2PL0 Copyright (c) Steve Scherf et al.
# Submitted via: ExactAudioCopy v0.95b1
#
DISCID=5010b616
DTITLE=Zelenaci Mirka Hoffmanna - Australske pribehy
DYEAR=2007
DGENRE=Country
TTITLE0=Moje Australie
TTITLE1=Vrat se chlapce kde jsi zil a rost
TTITLE2=Redena whisky
TTITLE3=Podivny videni
TTITLE4=Muz ktery to risknul
TTITLE5=Svaty Dan
TTITLE6=Umirajici pastevec
TTITLE7=Ja a muj pes
TTITLE8=Ricni zatoka
TTITLE9=Zlate strze reky Palmer
TTITLE10=Knez z Clevelandu
TTITLE11=Hosi z velkejch pastvin
TTITLE12=Desatero klubu tulaku
TTITLE13=V busi je domov muj
TTITLE14=Milion much
TTITLE15=Mel jsem ctyri kamose
TTITLE16=Bohatej farmar
TTITLE17=Bratrstvo klokani pracky
TTITLE18=Mantl John
TTITLE19=Australskej caj
TTITLE20=Soudek rumu
TTITLE21=Dam si pres rameno pingl
EXTD=
EXTT0=
EXTT1=
EXTT2=
EXTT3=
EXTT4=
EXTT5=
EXTT6=
EXTT7=
EXTT8=
EXTT9=
EXTT10=
EXTT11=
EXTT12=
EXTT13=
EXTT14=
EXTT15=
EXTT16=
EXTT17=
EXTT18=
EXTT19=
EXTT20=
EXTT21=
PLAYORDER=
